<?xml version="1.0" encoding="UTF-8" standalone="no"?>
<!DOCTYPE svg PUBLIC "-//W3C//DTD SVG 1.1//EN"
 "http://www.w3.org/Graphics/SVG/1.1/DTD/svg11.dtd">
<!-- Generated by graphviz version 13.1.0 (20250701.0955)
 -->
<!-- Title: interface/driver_ds2431_interface.h Pages: 1 -->
<svg width="872pt" height="176pt"
 viewBox="0.00 0.00 872.00 176.00" xmlns="http://www.w3.org/2000/svg" xmlns:xlink="http://www.w3.org/1999/xlink">
<g id="graph0" class="graph" transform="scale(1 1) rotate(0) translate(4 172)">
<title>interface/driver_ds2431_interface.h</title>
<!-- Node1 -->
<g id="Node000001" class="node">
<title>Node1</title>
<g id="a_Node000001"><a xlink:title="driver ds2431 interface header file">
<polygon fill="#999999" stroke="#666666" points="521.88,-168 404.62,-168 404.62,-136 521.88,-136 521.88,-168"/>
<text xml:space="preserve" text-anchor="start" x="412.62" y="-154.5" font-family="Helvetica,sans-Serif" font-size="10.00">interface/driver_ds2431</text>
<text xml:space="preserve" text-anchor="middle" x="463.25" y="-142.5" font-family="Helvetica,sans-Serif" font-size="10.00">_interface.h</text>
</a>
</g>
</g>
<!-- Node2 -->
<g id="Node000002" class="node">
<title>Node2</title>
<g id="a_Node000002"><a xlink:href="driver__ds2431__basic_8h.html" target="_top" xlink:title="driver ds2431 basic header file">
<polygon fill="white" stroke="#666666" points="116.5,-100 0,-100 0,-68 116.5,-68 116.5,-100"/>
<text xml:space="preserve" text-anchor="start" x="8" y="-86.5" font-family="Helvetica,sans-Serif" font-size="10.00">example/driver_ds2431</text>
<text xml:space="preserve" text-anchor="middle" x="58.25" y="-74.5" font-family="Helvetica,sans-Serif" font-size="10.00">_basic.h</text>
</a>
</g>
</g>
<!-- Node1&#45;&gt;Node2 -->
<g id="edge1_Node000001_Node000002" class="edge">
<title>Node1&#45;&gt;Node2</title>
<g id="a_edge1_Node000001_Node000002"><a xlink:title=" ">
<path fill="none" stroke="#63b8ff" d="M393.26,-141.8C324.94,-132.49 218.15,-117.07 126.25,-100 123.16,-99.43 120,-98.81 116.8,-98.18"/>
<polygon fill="#63b8ff" stroke="#63b8ff" points="392.42,-145.22 402.8,-143.09 393.36,-138.28 392.42,-145.22"/>
</a>
</g>
</g>
<!-- Node4 -->
<g id="Node000004" class="node">
<title>Node4</title>
<g id="a_Node000004"><a xlink:href="driver__ds2431__match_8h.html" target="_top" xlink:title="driver ds2431 match header file">
<polygon fill="white" stroke="#666666" points="251.5,-100 135,-100 135,-68 251.5,-68 251.5,-100"/>
<text xml:space="preserve" text-anchor="start" x="143" y="-86.5" font-family="Helvetica,sans-Serif" font-size="10.00">example/driver_ds2431</text>
<text xml:space="preserve" text-anchor="middle" x="193.25" y="-74.5" font-family="Helvetica,sans-Serif" font-size="10.00">_match.h</text>
</a>
</g>
</g>
<!-- Node1&#45;&gt;Node4 -->
<g id="edge3_Node000001_Node000004" class="edge">
<title>Node1&#45;&gt;Node4</title>
<g id="a_edge3_Node000001_Node000004"><a xlink:title=" ">
<path fill="none" stroke="#63b8ff" d="M393.42,-133.93C349.4,-123.17 293.21,-109.43 251.58,-99.26"/>
<polygon fill="#63b8ff" stroke="#63b8ff" points="392.32,-137.26 402.86,-136.24 393.98,-130.46 392.32,-137.26"/>
</a>
</g>
</g>
<!-- Node6 -->
<g id="Node000006" class="node">
<title>Node6</title>
<g id="a_Node000006"><a xlink:href="driver__ds2431__search_8h.html" target="_top" xlink:title="driver ds2431 search header file">
<polygon fill="white" stroke="#666666" points="386.5,-100 270,-100 270,-68 386.5,-68 386.5,-100"/>
<text xml:space="preserve" text-anchor="start" x="278" y="-86.5" font-family="Helvetica,sans-Serif" font-size="10.00">example/driver_ds2431</text>
<text xml:space="preserve" text-anchor="middle" x="328.25" y="-74.5" font-family="Helvetica,sans-Serif" font-size="10.00">_search.h</text>
</a>
</g>
</g>
<!-- Node1&#45;&gt;Node6 -->
<g id="edge5_Node000001_Node000006" class="edge">
<title>Node1&#45;&gt;Node6</title>
<g id="a_edge5_Node000001_Node000006"><a xlink:title=" ">
<path fill="none" stroke="#63b8ff" d="M421.26,-130.47C401.38,-120.75 378.03,-109.34 359.7,-100.38"/>
<polygon fill="#63b8ff" stroke="#63b8ff" points="419.72,-133.61 430.24,-134.86 422.79,-127.32 419.72,-133.61"/>
</a>
</g>
</g>
<!-- Node8 -->
<g id="Node000008" class="node">
<title>Node8</title>
<g id="a_Node000008"><a xlink:href="driver__ds2431__interface__template_8c.html" target="_top" xlink:title="driver ds2431 interface template source file">
<polygon fill="white" stroke="#666666" points="521.88,-100 404.62,-100 404.62,-68 521.88,-68 521.88,-100"/>
<text xml:space="preserve" text-anchor="start" x="412.62" y="-86.5" font-family="Helvetica,sans-Serif" font-size="10.00">interface/driver_ds2431</text>
<text xml:space="preserve" text-anchor="middle" x="463.25" y="-74.5" font-family="Helvetica,sans-Serif" font-size="10.00">_interface_template.c</text>
</a>
</g>
</g>
<!-- Node1&#45;&gt;Node8 -->
<g id="edge7_Node000001_Node000008" class="edge">
<title>Node1&#45;&gt;Node8</title>
<g id="a_edge7_Node000001_Node000008"><a xlink:title=" ">
<path fill="none" stroke="#63b8ff" d="M463.25,-124.31C463.25,-116.12 463.25,-107.38 463.25,-100.22"/>
<polygon fill="#63b8ff" stroke="#63b8ff" points="459.75,-124.18 463.25,-134.18 466.75,-124.18 459.75,-124.18"/>
</a>
</g>
</g>
<!-- Node9 -->
<g id="Node000009" class="node">
<title>Node9</title>
<g id="a_Node000009"><a xlink:href="driver__ds2431__read__test_8h.html" target="_top" xlink:title="driver ds2431 read test header file">
<polygon fill="white" stroke="#666666" points="636.38,-100 540.12,-100 540.12,-68 636.38,-68 636.38,-100"/>
<text xml:space="preserve" text-anchor="start" x="548.12" y="-86.5" font-family="Helvetica,sans-Serif" font-size="10.00">test/driver_ds2431</text>
<text xml:space="preserve" text-anchor="middle" x="588.25" y="-74.5" font-family="Helvetica,sans-Serif" font-size="10.00">_read_test.h</text>
</a>
</g>
</g>
<!-- Node1&#45;&gt;Node9 -->
<g id="edge8_Node000001_Node000009" class="edge">
<title>Node1&#45;&gt;Node9</title>
<g id="a_edge8_Node000001_Node000009"><a xlink:title=" ">
<path fill="none" stroke="#63b8ff" d="M502.64,-130.2C520.94,-120.54 542.31,-109.26 559.13,-100.38"/>
<polygon fill="#63b8ff" stroke="#63b8ff" points="501.1,-127.05 493.9,-134.82 504.37,-133.25 501.1,-127.05"/>
</a>
</g>
</g>
<!-- Node11 -->
<g id="Node000011" class="node">
<title>Node11</title>
<g id="a_Node000011"><a xlink:href="driver__ds2431__register__test_8h.html" target="_top" xlink:title="driver ds2431 register test header file">
<polygon fill="white" stroke="#666666" points="750.38,-100 654.12,-100 654.12,-68 750.38,-68 750.38,-100"/>
<text xml:space="preserve" text-anchor="start" x="662.12" y="-86.5" font-family="Helvetica,sans-Serif" font-size="10.00">test/driver_ds2431</text>
<text xml:space="preserve" text-anchor="middle" x="702.25" y="-74.5" font-family="Helvetica,sans-Serif" font-size="10.00">_register_test.h</text>
</a>
</g>
</g>
<!-- Node1&#45;&gt;Node11 -->
<g id="edge10_Node000001_Node000011" class="edge">
<title>Node1&#45;&gt;Node11</title>
<g id="a_edge10_Node000001_Node000011"><a xlink:title=" ">
<path fill="none" stroke="#63b8ff" d="M530.36,-132.47C569.63,-121.62 618.32,-108.18 653.84,-98.37"/>
<polygon fill="#63b8ff" stroke="#63b8ff" points="529.45,-129.09 520.74,-135.12 531.31,-135.83 529.45,-129.09"/>
</a>
</g>
</g>
<!-- Node13 -->
<g id="Node000013" class="node">
<title>Node13</title>
<g id="a_Node000013"><a xlink:href="driver__ds2431__search__test_8h.html" target="_top" xlink:title="driver ds2431 search test header file">
<polygon fill="white" stroke="#666666" points="864.38,-100 768.12,-100 768.12,-68 864.38,-68 864.38,-100"/>
<text xml:space="preserve" text-anchor="start" x="776.12" y="-86.5" font-family="Helvetica,sans-Serif" font-size="10.00">test/driver_ds2431</text>
<text xml:space="preserve" text-anchor="middle" x="816.25" y="-74.5" font-family="Helvetica,sans-Serif" font-size="10.00">_search_test.h</text>
</a>
</g>
</g>
<!-- Node1&#45;&gt;Node13 -->
<g id="edge12_Node000001_Node000013" class="edge">
<title>Node1&#45;&gt;Node13</title>
<g id="a_edge12_Node000001_Node000013"><a xlink:title=" ">
<path fill="none" stroke="#63b8ff" d="M533.5,-140.65C593.68,-131.37 682.54,-116.67 759.25,-100 762.05,-99.39 764.92,-98.74 767.81,-98.05"/>
<polygon fill="#63b8ff" stroke="#63b8ff" points="533.08,-137.18 523.73,-142.15 534.14,-144.1 533.08,-137.18"/>
</a>
</g>
</g>
<!-- Node3 -->
<g id="Node000003" class="node">
<title>Node3</title>
<g id="a_Node000003"><a xlink:href="driver__ds2431__basic_8c.html" target="_top" xlink:title="driver ds2431 basic source file">
<polygon fill="white" stroke="#666666" points="116.5,-32 0,-32 0,0 116.5,0 116.5,-32"/>
<text xml:space="preserve" text-anchor="start" x="8" y="-18.5" font-family="Helvetica,sans-Serif" font-size="10.00">example/driver_ds2431</text>
<text xml:space="preserve" text-anchor="middle" x="58.25" y="-6.5" font-family="Helvetica,sans-Serif" font-size="10.00">_basic.c</text>
</a>
</g>
</g>
<!-- Node2&#45;&gt;Node3 -->
<g id="edge2_Node000002_Node000003" class="edge">
<title>Node2&#45;&gt;Node3</title>
<g id="a_edge2_Node000002_Node000003"><a xlink:title=" ">
<path fill="none" stroke="#63b8ff" d="M58.25,-56.31C58.25,-48.12 58.25,-39.38 58.25,-32.22"/>
<polygon fill="#63b8ff" stroke="#63b8ff" points="54.75,-56.18 58.25,-66.18 61.75,-56.18 54.75,-56.18"/>
</a>
</g>
</g>
<!-- Node5 -->
<g id="Node000005" class="node">
<title>Node5</title>
<g id="a_Node000005"><a xlink:href="driver__ds2431__match_8c.html" target="_top" xlink:title="driver ds2431 match source file">
<polygon fill="white" stroke="#666666" points="251.5,-32 135,-32 135,0 251.5,0 251.5,-32"/>
<text xml:space="preserve" text-anchor="start" x="143" y="-18.5" font-family="Helvetica,sans-Serif" font-size="10.00">example/driver_ds2431</text>
<text xml:space="preserve" text-anchor="middle" x="193.25" y="-6.5" font-family="Helvetica,sans-Serif" font-size="10.00">_match.c</text>
</a>
</g>
</g>
<!-- Node4&#45;&gt;Node5 -->
<g id="edge4_Node000004_Node000005" class="edge">
<title>Node4&#45;&gt;Node5</title>
<g id="a_edge4_Node000004_Node000005"><a xlink:title=" ">
<path fill="none" stroke="#63b8ff" d="M193.25,-56.31C193.25,-48.12 193.25,-39.38 193.25,-32.22"/>
<polygon fill="#63b8ff" stroke="#63b8ff" points="189.75,-56.18 193.25,-66.18 196.75,-56.18 189.75,-56.18"/>
</a>
</g>
</g>
<!-- Node7 -->
<g id="Node000007" class="node">
<title>Node7</title>
<g id="a_Node000007"><a xlink:href="driver__ds2431__search_8c.html" target="_top" xlink:title="driver ds2431 search source file">
<polygon fill="white" stroke="#666666" points="386.5,-32 270,-32 270,0 386.5,0 386.5,-32"/>
<text xml:space="preserve" text-anchor="start" x="278" y="-18.5" font-family="Helvetica,sans-Serif" font-size="10.00">example/driver_ds2431</text>
<text xml:space="preserve" text-anchor="middle" x="328.25" y="-6.5" font-family="Helvetica,sans-Serif" font-size="10.00">_search.c</text>
</a>
</g>
</g>
<!-- Node6&#45;&gt;Node7 -->
<g id="edge6_Node000006_Node000007" class="edge">
<title>Node6&#45;&gt;Node7</title>
<g id="a_edge6_Node000006_Node000007"><a xlink:title=" ">
<path fill="none" stroke="#63b8ff" d="M328.25,-56.31C328.25,-48.12 328.25,-39.38 328.25,-32.22"/>
<polygon fill="#63b8ff" stroke="#63b8ff" points="324.75,-56.18 328.25,-66.18 331.75,-56.18 324.75,-56.18"/>
</a>
</g>
</g>
<!-- Node10 -->
<g id="Node000010" class="node">
<title>Node10</title>
<g id="a_Node000010"><a xlink:href="driver__ds2431__read__test_8c.html" target="_top" xlink:title="driver ds2431 read test source file">
<polygon fill="white" stroke="#666666" points="636.38,-32 540.12,-32 540.12,0 636.38,0 636.38,-32"/>
<text xml:space="preserve" text-anchor="start" x="548.12" y="-18.5" font-family="Helvetica,sans-Serif" font-size="10.00">test/driver_ds2431</text>
<text xml:space="preserve" text-anchor="middle" x="588.25" y="-6.5" font-family="Helvetica,sans-Serif" font-size="10.00">_read_test.c</text>
</a>
</g>
</g>
<!-- Node9&#45;&gt;Node10 -->
<g id="edge9_Node000009_Node000010" class="edge">
<title>Node9&#45;&gt;Node10</title>
<g id="a_edge9_Node000009_Node000010"><a xlink:title=" ">
<path fill="none" stroke="#63b8ff" d="M588.25,-56.31C588.25,-48.12 588.25,-39.38 588.25,-32.22"/>
<polygon fill="#63b8ff" stroke="#63b8ff" points="584.75,-56.18 588.25,-66.18 591.75,-56.18 584.75,-56.18"/>
</a>
</g>
</g>
<!-- Node12 -->
<g id="Node000012" class="node">
<title>Node12</title>
<g id="a_Node000012"><a xlink:href="driver__ds2431__register__test_8c.html" target="_top" xlink:title="driver ds2431 register test source file">
<polygon fill="white" stroke="#666666" points="750.38,-32 654.12,-32 654.12,0 750.38,0 750.38,-32"/>
<text xml:space="preserve" text-anchor="start" x="662.12" y="-18.5" font-family="Helvetica,sans-Serif" font-size="10.00">test/driver_ds2431</text>
<text xml:space="preserve" text-anchor="middle" x="702.25" y="-6.5" font-family="Helvetica,sans-Serif" font-size="10.00">_register_test.c</text>
</a>
</g>
</g>
<!-- Node11&#45;&gt;Node12 -->
<g id="edge11_Node000011_Node000012" class="edge">
<title>Node11&#45;&gt;Node12</title>
<g id="a_edge11_Node000011_Node000012"><a xlink:title=" ">
<path fill="none" stroke="#63b8ff" d="M702.25,-56.31C702.25,-48.12 702.25,-39.38 702.25,-32.22"/>
<polygon fill="#63b8ff" stroke="#63b8ff" points="698.75,-56.18 702.25,-66.18 705.75,-56.18 698.75,-56.18"/>
</a>
</g>
</g>
<!-- Node14 -->
<g id="Node000014" class="node">
<title>Node14</title>
<g id="a_Node000014"><a xlink:href="driver__ds2431__search__test_8c.html" target="_top" xlink:title="driver ds2431 search test source file">
<polygon fill="white" stroke="#666666" points="864.38,-32 768.12,-32 768.12,0 864.38,0 864.38,-32"/>
<text xml:space="preserve" text-anchor="start" x="776.12" y="-18.5" font-family="Helvetica,sans-Serif" font-size="10.00">test/driver_ds2431</text>
<text xml:space="preserve" text-anchor="middle" x="816.25" y="-6.5" font-family="Helvetica,sans-Serif" font-size="10.00">_search_test.c</text>
</a>
</g>
</g>
<!-- Node13&#45;&gt;Node14 -->
<g id="edge13_Node000013_Node000014" class="edge">
<title>Node13&#45;&gt;Node14</title>
<g id="a_edge13_Node000013_Node000014"><a xlink:title=" ">
<path fill="none" stroke="#63b8ff" d="M816.25,-56.31C816.25,-48.12 816.25,-39.38 816.25,-32.22"/>
<polygon fill="#63b8ff" stroke="#63b8ff" points="812.75,-56.18 816.25,-66.18 819.75,-56.18 812.75,-56.18"/>
</a>
</g>
</g>
</g>
</svg>
