<?xml version="1.0" encoding="UTF-8" standalone="no"?>
<!DOCTYPE svg PUBLIC "-//W3C//DTD SVG 1.1//EN"
 "http://www.w3.org/Graphics/SVG/1.1/DTD/svg11.dtd">
<!-- Generated by graphviz version 13.1.0 (20250701.0955)
 -->
<!-- Title: ds2431_match_init Pages: 1 -->
<svg width="284pt" height="458pt"
 viewBox="0.00 0.00 284.00 458.00" xmlns="http://www.w3.org/2000/svg" xmlns:xlink="http://www.w3.org/1999/xlink">
<g id="graph0" class="graph" transform="scale(1 1) rotate(0) translate(4 454)">
<title>ds2431_match_init</title>
<!-- Node1 -->
<g id="Node000001" class="node">
<title>Node1</title>
<g id="a_Node000001"><a xlink:title="match example init">
<polygon fill="#999999" stroke="#666666" points="97.75,-229 0,-229 0,-209 97.75,-209 97.75,-229"/>
<text xml:space="preserve" text-anchor="middle" x="48.88" y="-215.5" font-family="Helvetica,sans-Serif" font-size="10.00">ds2431_match_init</text>
</a>
</g>
</g>
<!-- Node2 -->
<g id="Node000002" class="node">
<title>Node2</title>
<g id="a_Node000002"><a xlink:href="group__ds2431__base__driver.html#gaec2473ed0563644165c412aa2bc5b845" target="_top" xlink:title="close the chip">
<polygon fill="white" stroke="#666666" points="242.75,-450 166.75,-450 166.75,-430 242.75,-430 242.75,-450"/>
<text xml:space="preserve" text-anchor="middle" x="204.75" y="-436.5" font-family="Helvetica,sans-Serif" font-size="10.00">ds2431_deinit</text>
</a>
</g>
</g>
<!-- Node1&#45;&gt;Node2 -->
<g id="edge1_Node000001_Node000002" class="edge">
<title>Node1&#45;&gt;Node2</title>
<g id="a_edge1_Node000001_Node000002"><a xlink:title=" ">
<path fill="none" stroke="#63b8ff" d="M50.98,-229.19C55.11,-262.24 72.72,-367.35 133.75,-421 139.99,-426.49 147.67,-430.41 155.62,-433.21"/>
<polygon fill="#63b8ff" stroke="#63b8ff" points="154.51,-436.53 165.08,-435.94 156.45,-429.8 154.51,-436.53"/>
</a>
</g>
</g>
<!-- Node3 -->
<g id="Node000003" class="node">
<title>Node3</title>
<g id="a_Node000003"><a xlink:href="group__ds2431__base__driver.html#ga0bff340e5c34d1c406913fc81b0c22aa" target="_top" xlink:title="initialize the chip">
<polygon fill="white" stroke="#666666" points="237.5,-412 172,-412 172,-392 237.5,-392 237.5,-412"/>
<text xml:space="preserve" text-anchor="middle" x="204.75" y="-398.5" font-family="Helvetica,sans-Serif" font-size="10.00">ds2431_init</text>
</a>
</g>
</g>
<!-- Node1&#45;&gt;Node3 -->
<g id="edge2_Node000001_Node000003" class="edge">
<title>Node1&#45;&gt;Node3</title>
<g id="a_edge2_Node000001_Node000003"><a xlink:title=" ">
<path fill="none" stroke="#63b8ff" d="M52.07,-229.3C58.79,-258.23 81.84,-340.89 133.75,-383 141.41,-389.22 150.94,-393.41 160.47,-396.23"/>
<polygon fill="#63b8ff" stroke="#63b8ff" points="159.54,-399.6 170.09,-398.59 161.21,-392.81 159.54,-399.6"/>
</a>
</g>
</g>
<!-- Node4 -->
<g id="Node000004" class="node">
<title>Node4</title>
<g id="a_Node000004"><a xlink:href="group__ds2431__interface__driver.html#gaf7addd4c044cec791f5d9c9976d3df83" target="_top" xlink:title="interface print format data">
<polygon fill="white" stroke="#666666" points="265.62,-374 143.88,-374 143.88,-342 265.62,-342 265.62,-374"/>
<text xml:space="preserve" text-anchor="start" x="151.88" y="-360.5" font-family="Helvetica,sans-Serif" font-size="10.00">ds2431_interface_debug</text>
<text xml:space="preserve" text-anchor="middle" x="204.75" y="-348.5" font-family="Helvetica,sans-Serif" font-size="10.00">_print</text>
</a>
</g>
</g>
<!-- Node1&#45;&gt;Node4 -->
<g id="edge3_Node000001_Node000004" class="edge">
<title>Node1&#45;&gt;Node4</title>
<g id="a_edge3_Node000001_Node000004"><a xlink:title=" ">
<path fill="none" stroke="#63b8ff" d="M54.83,-229.43C65.89,-251.64 94.72,-303.96 133.75,-333 135.11,-334.01 136.51,-334.98 137.95,-335.92"/>
<polygon fill="#63b8ff" stroke="#63b8ff" points="136.16,-338.93 146.58,-340.83 139.62,-332.84 136.16,-338.93"/>
</a>
</g>
</g>
<!-- Node5 -->
<g id="Node000005" class="node">
<title>Node5</title>
<g id="a_Node000005"><a xlink:href="group__ds2431__interface__driver.html#ga5ae59fd884743f4ecef0d911f4a263f9" target="_top" xlink:title="interface bus deinit">
<polygon fill="white" stroke="#666666" points="264.12,-324 145.38,-324 145.38,-304 264.12,-304 264.12,-324"/>
<text xml:space="preserve" text-anchor="middle" x="204.75" y="-310.5" font-family="Helvetica,sans-Serif" font-size="10.00">ds2431_interface_deinit</text>
</a>
</g>
</g>
<!-- Node1&#45;&gt;Node5 -->
<g id="edge4_Node000001_Node000005" class="edge">
<title>Node1&#45;&gt;Node5</title>
<g id="a_edge4_Node000001_Node000005"><a xlink:title=" ">
<path fill="none" stroke="#63b8ff" d="M58.29,-229.27C72.26,-245.63 101.86,-277.55 133.75,-295 136.75,-296.64 139.89,-298.14 143.13,-299.53"/>
<polygon fill="#63b8ff" stroke="#63b8ff" points="141.66,-302.71 152.25,-302.99 144.14,-296.17 141.66,-302.71"/>
</a>
</g>
</g>
<!-- Node6 -->
<g id="Node000006" class="node">
<title>Node6</title>
<g id="a_Node000006"><a xlink:href="group__ds2431__interface__driver.html#ga519c11d8ce85034a2de631405f971dd9" target="_top" xlink:title="interface delay ms">
<polygon fill="white" stroke="#666666" points="273.5,-286 136,-286 136,-266 273.5,-266 273.5,-286"/>
<text xml:space="preserve" text-anchor="middle" x="204.75" y="-272.5" font-family="Helvetica,sans-Serif" font-size="10.00">ds2431_interface_delay_ms</text>
</a>
</g>
</g>
<!-- Node1&#45;&gt;Node6 -->
<g id="edge5_Node000001_Node000006" class="edge">
<title>Node1&#45;&gt;Node6</title>
<g id="a_edge5_Node000001_Node000006"><a xlink:title=" ">
<path fill="none" stroke="#63b8ff" d="M70.52,-229.48C87.26,-237.7 111.64,-249.05 133.75,-257 139.02,-258.9 144.57,-260.71 150.15,-262.4"/>
<polygon fill="#63b8ff" stroke="#63b8ff" points="148.81,-265.66 159.39,-265.1 150.77,-258.94 148.81,-265.66"/>
</a>
</g>
</g>
<!-- Node7 -->
<g id="Node000007" class="node">
<title>Node7</title>
<g id="a_Node000007"><a xlink:href="group__ds2431__interface__driver.html#ga3e00dc14331f7c6eac5e59aa21a6edf7" target="_top" xlink:title="interface delay us">
<polygon fill="white" stroke="#666666" points="272,-248 137.5,-248 137.5,-228 272,-228 272,-248"/>
<text xml:space="preserve" text-anchor="middle" x="204.75" y="-234.5" font-family="Helvetica,sans-Serif" font-size="10.00">ds2431_interface_delay_us</text>
</a>
</g>
</g>
<!-- Node1&#45;&gt;Node7 -->
<g id="edge6_Node000001_Node000007" class="edge">
<title>Node1&#45;&gt;Node7</title>
<g id="a_edge6_Node000001_Node000007"><a xlink:title=" ">
<path fill="none" stroke="#63b8ff" d="M98.14,-224.96C106.91,-226.04 116.27,-227.2 125.64,-228.36"/>
<polygon fill="#63b8ff" stroke="#63b8ff" points="125.2,-231.83 135.55,-229.58 126.05,-224.88 125.2,-231.83"/>
</a>
</g>
</g>
<!-- Node8 -->
<g id="Node000008" class="node">
<title>Node8</title>
<g id="a_Node000008"><a xlink:href="group__ds2431__interface__driver.html#ga4013329dc32eacd6facfcf6eb1e3c43c" target="_top" xlink:title="interface disable the interrupt">
<polygon fill="white" stroke="#666666" points="275.75,-210 133.75,-210 133.75,-190 275.75,-190 275.75,-210"/>
<text xml:space="preserve" text-anchor="middle" x="204.75" y="-196.5" font-family="Helvetica,sans-Serif" font-size="10.00">ds2431_interface_disable_irq</text>
</a>
</g>
</g>
<!-- Node1&#45;&gt;Node8 -->
<g id="edge7_Node000001_Node000008" class="edge">
<title>Node1&#45;&gt;Node8</title>
<g id="a_edge7_Node000001_Node000008"><a xlink:title=" ">
<path fill="none" stroke="#63b8ff" d="M98.14,-213.04C105.84,-212.09 113.98,-211.08 122.19,-210.07"/>
<polygon fill="#63b8ff" stroke="#63b8ff" points="122.4,-213.57 131.9,-208.87 121.54,-206.62 122.4,-213.57"/>
</a>
</g>
</g>
<!-- Node9 -->
<g id="Node000009" class="node">
<title>Node9</title>
<g id="a_Node000009"><a xlink:href="group__ds2431__interface__driver.html#ga680f8eb4d98b5f58cefe308ab6bb5cd4" target="_top" xlink:title="interface enable the interrupt">
<polygon fill="white" stroke="#666666" points="274.62,-172 134.88,-172 134.88,-152 274.62,-152 274.62,-172"/>
<text xml:space="preserve" text-anchor="middle" x="204.75" y="-158.5" font-family="Helvetica,sans-Serif" font-size="10.00">ds2431_interface_enable_irq</text>
</a>
</g>
</g>
<!-- Node1&#45;&gt;Node9 -->
<g id="edge8_Node000001_Node000009" class="edge">
<title>Node1&#45;&gt;Node9</title>
<g id="a_edge8_Node000001_Node000009"><a xlink:title=" ">
<path fill="none" stroke="#63b8ff" d="M70.52,-208.52C87.26,-200.3 111.64,-188.95 133.75,-181 139.02,-179.1 144.57,-177.29 150.15,-175.6"/>
<polygon fill="#63b8ff" stroke="#63b8ff" points="150.77,-179.06 159.39,-172.9 148.81,-172.34 150.77,-179.06"/>
</a>
</g>
</g>
<!-- Node10 -->
<g id="Node000010" class="node">
<title>Node10</title>
<g id="a_Node000010"><a xlink:href="group__ds2431__interface__driver.html#ga1e981a5ee8dcdddd87a72e0076321864" target="_top" xlink:title="interface bus init">
<polygon fill="white" stroke="#666666" points="258.88,-134 150.62,-134 150.62,-114 258.88,-114 258.88,-134"/>
<text xml:space="preserve" text-anchor="middle" x="204.75" y="-120.5" font-family="Helvetica,sans-Serif" font-size="10.00">ds2431_interface_init</text>
</a>
</g>
</g>
<!-- Node1&#45;&gt;Node10 -->
<g id="edge9_Node000001_Node000010" class="edge">
<title>Node1&#45;&gt;Node10</title>
<g id="a_edge9_Node000001_Node000010"><a xlink:title=" ">
<path fill="none" stroke="#63b8ff" d="M58.29,-208.73C72.26,-192.37 101.86,-160.45 133.75,-143 136.75,-141.36 139.89,-139.86 143.13,-138.47"/>
<polygon fill="#63b8ff" stroke="#63b8ff" points="144.14,-141.83 152.25,-135.01 141.66,-135.29 144.14,-141.83"/>
</a>
</g>
</g>
<!-- Node11 -->
<g id="Node000011" class="node">
<title>Node11</title>
<g id="a_Node000011"><a xlink:href="group__ds2431__interface__driver.html#ga20c7ee35bb6133c218f61237a9f87e66" target="_top" xlink:title="interface bus read">
<polygon fill="white" stroke="#666666" points="261.88,-96 147.62,-96 147.62,-76 261.88,-76 261.88,-96"/>
<text xml:space="preserve" text-anchor="middle" x="204.75" y="-82.5" font-family="Helvetica,sans-Serif" font-size="10.00">ds2431_interface_read</text>
</a>
</g>
</g>
<!-- Node1&#45;&gt;Node11 -->
<g id="edge10_Node000001_Node000011" class="edge">
<title>Node1&#45;&gt;Node11</title>
<g id="a_edge10_Node000001_Node000011"><a xlink:title=" ">
<path fill="none" stroke="#63b8ff" d="M54.5,-208.67C65.11,-186.19 93.41,-132.64 133.75,-105 135.7,-103.67 137.74,-102.42 139.84,-101.27"/>
<polygon fill="#63b8ff" stroke="#63b8ff" points="141.14,-104.53 148.71,-97.12 138.17,-98.19 141.14,-104.53"/>
</a>
</g>
</g>
<!-- Node12 -->
<g id="Node000012" class="node">
<title>Node12</title>
<g id="a_Node000012"><a xlink:href="group__ds2431__interface__driver.html#gadeb3db8e55efba81badfc7281df8b963" target="_top" xlink:title="interface bus write">
<polygon fill="white" stroke="#666666" points="263,-58 146.5,-58 146.5,-38 263,-38 263,-58"/>
<text xml:space="preserve" text-anchor="middle" x="204.75" y="-44.5" font-family="Helvetica,sans-Serif" font-size="10.00">ds2431_interface_write</text>
</a>
</g>
</g>
<!-- Node1&#45;&gt;Node12 -->
<g id="edge11_Node000001_Node000012" class="edge">
<title>Node1&#45;&gt;Node12</title>
<g id="a_edge11_Node000001_Node000012"><a xlink:title=" ">
<path fill="none" stroke="#63b8ff" d="M52.52,-208.66C60.13,-181.13 84.69,-105.54 133.75,-67 135.25,-65.82 136.81,-64.72 138.43,-63.68"/>
<polygon fill="#63b8ff" stroke="#63b8ff" points="139.7,-66.98 146.87,-59.18 136.4,-60.8 139.7,-66.98"/>
</a>
</g>
</g>
<!-- Node13 -->
<g id="Node000013" class="node">
<title>Node13</title>
<g id="a_Node000013"><a xlink:href="group__ds2431__base__driver.html#gaf6edef773fb1d4b65a193396a0eda8f0" target="_top" xlink:title="set the chip mode">
<polygon fill="white" stroke="#666666" points="252.5,-20 157,-20 157,0 252.5,0 252.5,-20"/>
<text xml:space="preserve" text-anchor="middle" x="204.75" y="-6.5" font-family="Helvetica,sans-Serif" font-size="10.00">ds2431_set_mode</text>
</a>
</g>
</g>
<!-- Node1&#45;&gt;Node13 -->
<g id="edge12_Node000001_Node000013" class="edge">
<title>Node1&#45;&gt;Node13</title>
<g id="a_edge12_Node000001_Node000013"><a xlink:title=" ">
<path fill="none" stroke="#63b8ff" d="M51.32,-208.51C56.3,-176.43 75.78,-78.83 133.75,-29 137.56,-25.73 141.88,-23.01 146.46,-20.76"/>
<polygon fill="#63b8ff" stroke="#63b8ff" points="147.47,-24.13 155.41,-17.11 144.83,-17.65 147.47,-24.13"/>
</a>
</g>
</g>
</g>
</svg>
