<?xml version="1.0" encoding="UTF-8" standalone="no"?>
<!DOCTYPE svg PUBLIC "-//W3C//DTD SVG 1.1//EN"
 "http://www.w3.org/Graphics/SVG/1.1/DTD/svg11.dtd">
<!-- Generated by graphviz version 13.1.0 (20250701.0955)
 -->
<!-- Title: ds2431_basic_init Pages: 1 -->
<svg width="280pt" height="458pt"
 viewBox="0.00 0.00 280.00 458.00" xmlns="http://www.w3.org/2000/svg" xmlns:xlink="http://www.w3.org/1999/xlink">
<g id="graph0" class="graph" transform="scale(1 1) rotate(0) translate(4 454)">
<title>ds2431_basic_init</title>
<!-- Node1 -->
<g id="Node000001" class="node">
<title>Node1</title>
<g id="a_Node000001"><a xlink:title="basic example init">
<polygon fill="#999999" stroke="#666666" points="94,-229 0,-229 0,-209 94,-209 94,-229"/>
<text xml:space="preserve" text-anchor="middle" x="47" y="-215.5" font-family="Helvetica,sans-Serif" font-size="10.00">ds2431_basic_init</text>
</a>
</g>
</g>
<!-- Node2 -->
<g id="Node000002" class="node">
<title>Node2</title>
<g id="a_Node000002"><a xlink:href="group__ds2431__base__driver.html#gaec2473ed0563644165c412aa2bc5b845" target="_top" xlink:title="close the chip">
<polygon fill="white" stroke="#666666" points="239,-450 163,-450 163,-430 239,-430 239,-450"/>
<text xml:space="preserve" text-anchor="middle" x="201" y="-436.5" font-family="Helvetica,sans-Serif" font-size="10.00">ds2431_deinit</text>
</a>
</g>
</g>
<!-- Node1&#45;&gt;Node2 -->
<g id="edge1_Node000001_Node000002" class="edge">
<title>Node1&#45;&gt;Node2</title>
<g id="a_edge1_Node000001_Node000002"><a xlink:title=" ">
<path fill="none" stroke="#63b8ff" d="M49,-229.19C52.81,-262.22 69.38,-367.28 130,-421 136.22,-426.51 143.89,-430.44 151.84,-433.25"/>
<polygon fill="#63b8ff" stroke="#63b8ff" points="150.72,-436.57 161.3,-435.99 152.67,-429.84 150.72,-436.57"/>
</a>
</g>
</g>
<!-- Node3 -->
<g id="Node000003" class="node">
<title>Node3</title>
<g id="a_Node000003"><a xlink:href="group__ds2431__base__driver.html#ga0bff340e5c34d1c406913fc81b0c22aa" target="_top" xlink:title="initialize the chip">
<polygon fill="white" stroke="#666666" points="233.75,-412 168.25,-412 168.25,-392 233.75,-392 233.75,-412"/>
<text xml:space="preserve" text-anchor="middle" x="201" y="-398.5" font-family="Helvetica,sans-Serif" font-size="10.00">ds2431_init</text>
</a>
</g>
</g>
<!-- Node1&#45;&gt;Node3 -->
<g id="edge2_Node000001_Node000003" class="edge">
<title>Node1&#45;&gt;Node3</title>
<g id="a_edge2_Node000001_Node000003"><a xlink:title=" ">
<path fill="none" stroke="#63b8ff" d="M50.07,-229.29C56.44,-258.21 78.52,-340.85 130,-383 137.63,-389.25 147.15,-393.45 156.68,-396.28"/>
<polygon fill="#63b8ff" stroke="#63b8ff" points="155.75,-399.65 166.3,-398.64 157.42,-392.86 155.75,-399.65"/>
</a>
</g>
</g>
<!-- Node4 -->
<g id="Node000004" class="node">
<title>Node4</title>
<g id="a_Node000004"><a xlink:href="group__ds2431__interface__driver.html#gaf7addd4c044cec791f5d9c9976d3df83" target="_top" xlink:title="interface print format data">
<polygon fill="white" stroke="#666666" points="261.88,-374 140.12,-374 140.12,-342 261.88,-342 261.88,-374"/>
<text xml:space="preserve" text-anchor="start" x="148.12" y="-360.5" font-family="Helvetica,sans-Serif" font-size="10.00">ds2431_interface_debug</text>
<text xml:space="preserve" text-anchor="middle" x="201" y="-348.5" font-family="Helvetica,sans-Serif" font-size="10.00">_print</text>
</a>
</g>
</g>
<!-- Node1&#45;&gt;Node4 -->
<g id="edge3_Node000001_Node000004" class="edge">
<title>Node1&#45;&gt;Node4</title>
<g id="a_edge3_Node000001_Node000004"><a xlink:title=" ">
<path fill="none" stroke="#63b8ff" d="M52.78,-229.43C63.47,-251.65 91.43,-303.97 130,-333 131.35,-334.02 132.75,-335 134.19,-335.94"/>
<polygon fill="#63b8ff" stroke="#63b8ff" points="132.38,-338.94 142.8,-340.88 135.86,-332.87 132.38,-338.94"/>
</a>
</g>
</g>
<!-- Node5 -->
<g id="Node000005" class="node">
<title>Node5</title>
<g id="a_Node000005"><a xlink:href="group__ds2431__interface__driver.html#ga5ae59fd884743f4ecef0d911f4a263f9" target="_top" xlink:title="interface bus deinit">
<polygon fill="white" stroke="#666666" points="260.38,-324 141.62,-324 141.62,-304 260.38,-304 260.38,-324"/>
<text xml:space="preserve" text-anchor="middle" x="201" y="-310.5" font-family="Helvetica,sans-Serif" font-size="10.00">ds2431_interface_deinit</text>
</a>
</g>
</g>
<!-- Node1&#45;&gt;Node5 -->
<g id="edge4_Node000001_Node000005" class="edge">
<title>Node1&#45;&gt;Node5</title>
<g id="a_edge4_Node000001_Node000005"><a xlink:title=" ">
<path fill="none" stroke="#63b8ff" d="M56.18,-229.28C69.76,-245.65 98.59,-277.59 130,-295 132.99,-296.66 136.13,-298.17 139.35,-299.57"/>
<polygon fill="#63b8ff" stroke="#63b8ff" points="137.87,-302.75 148.46,-303.05 140.37,-296.21 137.87,-302.75"/>
</a>
</g>
</g>
<!-- Node6 -->
<g id="Node000006" class="node">
<title>Node6</title>
<g id="a_Node000006"><a xlink:href="group__ds2431__interface__driver.html#ga519c11d8ce85034a2de631405f971dd9" target="_top" xlink:title="interface delay ms">
<polygon fill="white" stroke="#666666" points="269.75,-286 132.25,-286 132.25,-266 269.75,-266 269.75,-286"/>
<text xml:space="preserve" text-anchor="middle" x="201" y="-272.5" font-family="Helvetica,sans-Serif" font-size="10.00">ds2431_interface_delay_ms</text>
</a>
</g>
</g>
<!-- Node1&#45;&gt;Node6 -->
<g id="edge5_Node000001_Node000006" class="edge">
<title>Node1&#45;&gt;Node6</title>
<g id="a_edge5_Node000001_Node000006"><a xlink:title=" ">
<path fill="none" stroke="#63b8ff" d="M67.82,-229.34C84.18,-237.59 108.18,-249.05 130,-257 135.26,-258.92 140.81,-260.74 146.38,-262.45"/>
<polygon fill="#63b8ff" stroke="#63b8ff" points="145.04,-265.7 155.62,-265.15 147,-258.98 145.04,-265.7"/>
</a>
</g>
</g>
<!-- Node7 -->
<g id="Node000007" class="node">
<title>Node7</title>
<g id="a_Node000007"><a xlink:href="group__ds2431__interface__driver.html#ga3e00dc14331f7c6eac5e59aa21a6edf7" target="_top" xlink:title="interface delay us">
<polygon fill="white" stroke="#666666" points="268.25,-248 133.75,-248 133.75,-228 268.25,-228 268.25,-248"/>
<text xml:space="preserve" text-anchor="middle" x="201" y="-234.5" font-family="Helvetica,sans-Serif" font-size="10.00">ds2431_interface_delay_us</text>
</a>
</g>
</g>
<!-- Node1&#45;&gt;Node7 -->
<g id="edge6_Node000001_Node000007" class="edge">
<title>Node1&#45;&gt;Node7</title>
<g id="a_edge6_Node000001_Node000007"><a xlink:title=" ">
<path fill="none" stroke="#63b8ff" d="M94.43,-224.8C103.28,-225.91 112.76,-227.1 122.28,-228.28"/>
<polygon fill="#63b8ff" stroke="#63b8ff" points="121.57,-231.72 131.93,-229.49 122.44,-224.78 121.57,-231.72"/>
</a>
</g>
</g>
<!-- Node8 -->
<g id="Node000008" class="node">
<title>Node8</title>
<g id="a_Node000008"><a xlink:href="group__ds2431__interface__driver.html#ga4013329dc32eacd6facfcf6eb1e3c43c" target="_top" xlink:title="interface disable the interrupt">
<polygon fill="white" stroke="#666666" points="272,-210 130,-210 130,-190 272,-190 272,-210"/>
<text xml:space="preserve" text-anchor="middle" x="201" y="-196.5" font-family="Helvetica,sans-Serif" font-size="10.00">ds2431_interface_disable_irq</text>
</a>
</g>
</g>
<!-- Node1&#45;&gt;Node8 -->
<g id="edge7_Node000001_Node000008" class="edge">
<title>Node1&#45;&gt;Node8</title>
<g id="a_edge7_Node000001_Node000008"><a xlink:title=" ">
<path fill="none" stroke="#63b8ff" d="M94.43,-213.2C102.05,-212.24 110.15,-211.23 118.33,-210.21"/>
<polygon fill="#63b8ff" stroke="#63b8ff" points="118.51,-213.71 128,-209 117.64,-206.77 118.51,-213.71"/>
</a>
</g>
</g>
<!-- Node9 -->
<g id="Node000009" class="node">
<title>Node9</title>
<g id="a_Node000009"><a xlink:href="group__ds2431__interface__driver.html#ga680f8eb4d98b5f58cefe308ab6bb5cd4" target="_top" xlink:title="interface enable the interrupt">
<polygon fill="white" stroke="#666666" points="270.88,-172 131.12,-172 131.12,-152 270.88,-152 270.88,-172"/>
<text xml:space="preserve" text-anchor="middle" x="201" y="-158.5" font-family="Helvetica,sans-Serif" font-size="10.00">ds2431_interface_enable_irq</text>
</a>
</g>
</g>
<!-- Node1&#45;&gt;Node9 -->
<g id="edge8_Node000001_Node000009" class="edge">
<title>Node1&#45;&gt;Node9</title>
<g id="a_edge8_Node000001_Node000009"><a xlink:title=" ">
<path fill="none" stroke="#63b8ff" d="M67.82,-208.66C84.18,-200.41 108.18,-188.95 130,-181 135.26,-179.08 140.81,-177.26 146.38,-175.55"/>
<polygon fill="#63b8ff" stroke="#63b8ff" points="147,-179.02 155.62,-172.85 145.04,-172.3 147,-179.02"/>
</a>
</g>
</g>
<!-- Node10 -->
<g id="Node000010" class="node">
<title>Node10</title>
<g id="a_Node000010"><a xlink:href="group__ds2431__interface__driver.html#ga1e981a5ee8dcdddd87a72e0076321864" target="_top" xlink:title="interface bus init">
<polygon fill="white" stroke="#666666" points="255.12,-134 146.88,-134 146.88,-114 255.12,-114 255.12,-134"/>
<text xml:space="preserve" text-anchor="middle" x="201" y="-120.5" font-family="Helvetica,sans-Serif" font-size="10.00">ds2431_interface_init</text>
</a>
</g>
</g>
<!-- Node1&#45;&gt;Node10 -->
<g id="edge9_Node000001_Node000010" class="edge">
<title>Node1&#45;&gt;Node10</title>
<g id="a_edge9_Node000001_Node000010"><a xlink:title=" ">
<path fill="none" stroke="#63b8ff" d="M56.18,-208.72C69.76,-192.35 98.59,-160.41 130,-143 132.99,-141.34 136.13,-139.83 139.35,-138.43"/>
<polygon fill="#63b8ff" stroke="#63b8ff" points="140.37,-141.79 148.46,-134.95 137.87,-135.25 140.37,-141.79"/>
</a>
</g>
</g>
<!-- Node11 -->
<g id="Node000011" class="node">
<title>Node11</title>
<g id="a_Node000011"><a xlink:href="group__ds2431__interface__driver.html#ga20c7ee35bb6133c218f61237a9f87e66" target="_top" xlink:title="interface bus read">
<polygon fill="white" stroke="#666666" points="258.12,-96 143.88,-96 143.88,-76 258.12,-76 258.12,-96"/>
<text xml:space="preserve" text-anchor="middle" x="201" y="-82.5" font-family="Helvetica,sans-Serif" font-size="10.00">ds2431_interface_read</text>
</a>
</g>
</g>
<!-- Node1&#45;&gt;Node11 -->
<g id="edge10_Node000001_Node000011" class="edge">
<title>Node1&#45;&gt;Node11</title>
<g id="a_edge10_Node000001_Node000011"><a xlink:title=" ">
<path fill="none" stroke="#63b8ff" d="M52.46,-208.67C62.69,-186.19 90.13,-132.64 130,-105 131.94,-103.65 133.97,-102.4 136.07,-101.24"/>
<polygon fill="#63b8ff" stroke="#63b8ff" points="137.37,-104.5 144.93,-97.07 134.39,-98.17 137.37,-104.5"/>
</a>
</g>
</g>
<!-- Node12 -->
<g id="Node000012" class="node">
<title>Node12</title>
<g id="a_Node000012"><a xlink:href="group__ds2431__interface__driver.html#gadeb3db8e55efba81badfc7281df8b963" target="_top" xlink:title="interface bus write">
<polygon fill="white" stroke="#666666" points="259.25,-58 142.75,-58 142.75,-38 259.25,-38 259.25,-58"/>
<text xml:space="preserve" text-anchor="middle" x="201" y="-44.5" font-family="Helvetica,sans-Serif" font-size="10.00">ds2431_interface_write</text>
</a>
</g>
</g>
<!-- Node1&#45;&gt;Node12 -->
<g id="edge11_Node000001_Node000012" class="edge">
<title>Node1&#45;&gt;Node12</title>
<g id="a_edge11_Node000001_Node000012"><a xlink:title=" ">
<path fill="none" stroke="#63b8ff" d="M50.52,-208.66C57.77,-181.15 81.37,-105.57 130,-67 131.49,-65.82 133.05,-64.71 134.67,-63.67"/>
<polygon fill="#63b8ff" stroke="#63b8ff" points="135.94,-66.96 143.09,-59.14 132.62,-60.79 135.94,-66.96"/>
</a>
</g>
</g>
<!-- Node13 -->
<g id="Node000013" class="node">
<title>Node13</title>
<g id="a_Node000013"><a xlink:href="group__ds2431__base__driver.html#gaf6edef773fb1d4b65a193396a0eda8f0" target="_top" xlink:title="set the chip mode">
<polygon fill="white" stroke="#666666" points="248.75,-20 153.25,-20 153.25,0 248.75,0 248.75,-20"/>
<text xml:space="preserve" text-anchor="middle" x="201" y="-6.5" font-family="Helvetica,sans-Serif" font-size="10.00">ds2431_set_mode</text>
</a>
</g>
</g>
<!-- Node1&#45;&gt;Node13 -->
<g id="edge12_Node000001_Node000013" class="edge">
<title>Node1&#45;&gt;Node13</title>
<g id="a_edge12_Node000001_Node000013"><a xlink:title=" ">
<path fill="none" stroke="#63b8ff" d="M49.33,-208.51C53.98,-176.45 72.45,-78.89 130,-29 133.8,-25.71 138.11,-22.98 142.68,-20.73"/>
<polygon fill="#63b8ff" stroke="#63b8ff" points="143.69,-24.09 151.62,-17.07 141.04,-17.62 143.69,-24.09"/>
</a>
</g>
</g>
</g>
</svg>
