<?xml version="1.0" encoding="UTF-8" standalone="no"?>
<!DOCTYPE svg PUBLIC "-//W3C//DTD SVG 1.1//EN"
 "http://www.w3.org/Graphics/SVG/1.1/DTD/svg11.dtd">
<!-- Generated by graphviz version 13.1.0 (20250701.0955)
 -->
<!-- Title: ds2431_match_write_memory_config Pages: 1 -->
<svg width="264pt" height="78pt"
 viewBox="0.00 0.00 264.00 78.00" xmlns="http://www.w3.org/2000/svg" xmlns:xlink="http://www.w3.org/1999/xlink">
<g id="graph0" class="graph" transform="scale(1 1) rotate(0) translate(4 74)">
<title>ds2431_match_write_memory_config</title>
<!-- Node1 -->
<g id="Node000001" class="node">
<title>Node1</title>
<g id="a_Node000001"><a xlink:title="match example write memory config">
<polygon fill="#999999" stroke="#666666" points="106,-54 0,-54 0,-22 106,-22 106,-54"/>
<text xml:space="preserve" text-anchor="start" x="8" y="-40.5" font-family="Helvetica,sans-Serif" font-size="10.00">ds2431_match_write</text>
<text xml:space="preserve" text-anchor="middle" x="53" y="-28.5" font-family="Helvetica,sans-Serif" font-size="10.00">_memory_config</text>
</a>
</g>
</g>
<!-- Node2 -->
<g id="Node000002" class="node">
<title>Node2</title>
<g id="a_Node000002"><a xlink:href="group__ds2431__base__driver.html#ga172f4e4287b3c63926a914ae4af09551" target="_top" xlink:title="set the handle rom">
<polygon fill="white" stroke="#666666" points="243.12,-70 155.12,-70 155.12,-50 243.12,-50 243.12,-70"/>
<text xml:space="preserve" text-anchor="middle" x="199.12" y="-56.5" font-family="Helvetica,sans-Serif" font-size="10.00">ds2431_set_rom</text>
</a>
</g>
</g>
<!-- Node1&#45;&gt;Node2 -->
<g id="edge1_Node000001_Node000002" class="edge">
<title>Node1&#45;&gt;Node2</title>
<g id="a_edge1_Node000001_Node000002"><a xlink:title=" ">
<path fill="none" stroke="#63b8ff" d="M106.44,-46C118.64,-47.87 131.65,-49.85 143.93,-51.73"/>
<polygon fill="#63b8ff" stroke="#63b8ff" points="143.04,-55.13 153.46,-53.18 144.1,-48.21 143.04,-55.13"/>
</a>
</g>
</g>
<!-- Node3 -->
<g id="Node000003" class="node">
<title>Node3</title>
<g id="a_Node000003"><a xlink:href="group__ds2431__advance__driver.html#ga4b543251da3074d2774359fcb6c3d29a" target="_top" xlink:title="write memory config">
<polygon fill="white" stroke="#666666" points="256.25,-32 142,-32 142,0 256.25,0 256.25,-32"/>
<text xml:space="preserve" text-anchor="start" x="150" y="-18.5" font-family="Helvetica,sans-Serif" font-size="10.00">ds2431_write_memory</text>
<text xml:space="preserve" text-anchor="middle" x="199.12" y="-6.5" font-family="Helvetica,sans-Serif" font-size="10.00">_config</text>
</a>
</g>
</g>
<!-- Node1&#45;&gt;Node3 -->
<g id="edge2_Node000001_Node000003" class="edge">
<title>Node1&#45;&gt;Node3</title>
<g id="a_edge2_Node000001_Node000003"><a xlink:title=" ">
<path fill="none" stroke="#63b8ff" d="M106.44,-30C114.21,-28.81 122.31,-27.57 130.33,-26.35"/>
<polygon fill="#63b8ff" stroke="#63b8ff" points="130.74,-29.83 140.09,-24.86 129.68,-22.91 130.74,-29.83"/>
</a>
</g>
</g>
</g>
</svg>
