<?xml version="1.0" encoding="UTF-8" standalone="no"?>
<!DOCTYPE svg PUBLIC "-//W3C//DTD SVG 1.1//EN"
 "http://www.w3.org/Graphics/SVG/1.1/DTD/svg11.dtd">
<!-- Generated by graphviz version 13.1.0 (20250701.0955)
 -->
<!-- Title: ds2431_search_init Pages: 1 -->
<svg width="286pt" height="382pt"
 viewBox="0.00 0.00 286.00 382.00" xmlns="http://www.w3.org/2000/svg" xmlns:xlink="http://www.w3.org/1999/xlink">
<g id="graph0" class="graph" transform="scale(1 1) rotate(0) translate(4 378)">
<title>ds2431_search_init</title>
<!-- Node1 -->
<g id="Node000001" class="node">
<title>Node1</title>
<g id="a_Node000001"><a xlink:title="search example init">
<polygon fill="#999999" stroke="#666666" points="100,-191 0,-191 0,-171 100,-171 100,-191"/>
<text xml:space="preserve" text-anchor="middle" x="50" y="-177.5" font-family="Helvetica,sans-Serif" font-size="10.00">ds2431_search_init</text>
</a>
</g>
</g>
<!-- Node2 -->
<g id="Node000002" class="node">
<title>Node2</title>
<g id="a_Node000002"><a xlink:href="group__ds2431__base__driver.html#ga0bff340e5c34d1c406913fc81b0c22aa" target="_top" xlink:title="initialize the chip">
<polygon fill="white" stroke="#666666" points="239.75,-374 174.25,-374 174.25,-354 239.75,-354 239.75,-374"/>
<text xml:space="preserve" text-anchor="middle" x="207" y="-360.5" font-family="Helvetica,sans-Serif" font-size="10.00">ds2431_init</text>
</a>
</g>
</g>
<!-- Node1&#45;&gt;Node2 -->
<g id="edge1_Node000001_Node000002" class="edge">
<title>Node1&#45;&gt;Node2</title>
<g id="a_edge1_Node000001_Node000002"><a xlink:title=" ">
<path fill="none" stroke="#63b8ff" d="M53.27,-191.3C60.19,-220.24 83.83,-302.92 136,-345 143.68,-351.19 153.21,-355.38 162.75,-358.2"/>
<polygon fill="#63b8ff" stroke="#63b8ff" points="161.82,-361.57 172.36,-360.56 163.49,-354.78 161.82,-361.57"/>
</a>
</g>
</g>
<!-- Node3 -->
<g id="Node000003" class="node">
<title>Node3</title>
<g id="a_Node000003"><a xlink:href="group__ds2431__interface__driver.html#gaf7addd4c044cec791f5d9c9976d3df83" target="_top" xlink:title="interface print format data">
<polygon fill="white" stroke="#666666" points="267.88,-336 146.12,-336 146.12,-304 267.88,-304 267.88,-336"/>
<text xml:space="preserve" text-anchor="start" x="154.12" y="-322.5" font-family="Helvetica,sans-Serif" font-size="10.00">ds2431_interface_debug</text>
<text xml:space="preserve" text-anchor="middle" x="207" y="-310.5" font-family="Helvetica,sans-Serif" font-size="10.00">_print</text>
</a>
</g>
</g>
<!-- Node1&#45;&gt;Node3 -->
<g id="edge2_Node000001_Node000003" class="edge">
<title>Node1&#45;&gt;Node3</title>
<g id="a_edge2_Node000001_Node000003"><a xlink:title=" ">
<path fill="none" stroke="#63b8ff" d="M56.06,-191.43C67.34,-213.64 96.69,-265.94 136,-295 137.36,-296.01 138.77,-296.98 140.21,-297.91"/>
<polygon fill="#63b8ff" stroke="#63b8ff" points="138.43,-300.92 148.85,-302.81 141.88,-294.83 138.43,-300.92"/>
</a>
</g>
</g>
<!-- Node4 -->
<g id="Node000004" class="node">
<title>Node4</title>
<g id="a_Node000004"><a xlink:href="group__ds2431__interface__driver.html#ga5ae59fd884743f4ecef0d911f4a263f9" target="_top" xlink:title="interface bus deinit">
<polygon fill="white" stroke="#666666" points="266.38,-286 147.62,-286 147.62,-266 266.38,-266 266.38,-286"/>
<text xml:space="preserve" text-anchor="middle" x="207" y="-272.5" font-family="Helvetica,sans-Serif" font-size="10.00">ds2431_interface_deinit</text>
</a>
</g>
</g>
<!-- Node1&#45;&gt;Node4 -->
<g id="edge3_Node000001_Node000004" class="edge">
<title>Node1&#45;&gt;Node4</title>
<g id="a_edge3_Node000001_Node000004"><a xlink:title=" ">
<path fill="none" stroke="#63b8ff" d="M59.56,-191.26C73.76,-207.62 103.81,-239.53 136,-257 139.06,-258.66 142.27,-260.18 145.56,-261.58"/>
<polygon fill="#63b8ff" stroke="#63b8ff" points="144.29,-264.84 154.88,-265.08 146.76,-258.29 144.29,-264.84"/>
</a>
</g>
</g>
<!-- Node5 -->
<g id="Node000005" class="node">
<title>Node5</title>
<g id="a_Node000005"><a xlink:href="group__ds2431__interface__driver.html#ga519c11d8ce85034a2de631405f971dd9" target="_top" xlink:title="interface delay ms">
<polygon fill="white" stroke="#666666" points="275.75,-248 138.25,-248 138.25,-228 275.75,-228 275.75,-248"/>
<text xml:space="preserve" text-anchor="middle" x="207" y="-234.5" font-family="Helvetica,sans-Serif" font-size="10.00">ds2431_interface_delay_ms</text>
</a>
</g>
</g>
<!-- Node1&#45;&gt;Node5 -->
<g id="edge4_Node000001_Node000005" class="edge">
<title>Node1&#45;&gt;Node5</title>
<g id="a_edge4_Node000001_Node000005"><a xlink:title=" ">
<path fill="none" stroke="#63b8ff" d="M71.93,-191.46C88.92,-199.67 113.62,-211.01 136,-219 141.35,-220.91 146.98,-222.73 152.64,-224.45"/>
<polygon fill="#63b8ff" stroke="#63b8ff" points="151.44,-227.74 162.02,-227.17 153.39,-221.02 151.44,-227.74"/>
</a>
</g>
</g>
<!-- Node6 -->
<g id="Node000006" class="node">
<title>Node6</title>
<g id="a_Node000006"><a xlink:href="group__ds2431__interface__driver.html#ga3e00dc14331f7c6eac5e59aa21a6edf7" target="_top" xlink:title="interface delay us">
<polygon fill="white" stroke="#666666" points="274.25,-210 139.75,-210 139.75,-190 274.25,-190 274.25,-210"/>
<text xml:space="preserve" text-anchor="middle" x="207" y="-196.5" font-family="Helvetica,sans-Serif" font-size="10.00">ds2431_interface_delay_us</text>
</a>
</g>
</g>
<!-- Node1&#45;&gt;Node6 -->
<g id="edge5_Node000001_Node000006" class="edge">
<title>Node1&#45;&gt;Node6</title>
<g id="a_edge5_Node000001_Node000006"><a xlink:title=" ">
<path fill="none" stroke="#63b8ff" d="M100.47,-187.06C109.29,-188.14 118.67,-189.29 128.05,-190.45"/>
<polygon fill="#63b8ff" stroke="#63b8ff" points="127.61,-193.92 137.97,-191.66 128.47,-186.97 127.61,-193.92"/>
</a>
</g>
</g>
<!-- Node7 -->
<g id="Node000007" class="node">
<title>Node7</title>
<g id="a_Node000007"><a xlink:href="group__ds2431__interface__driver.html#ga4013329dc32eacd6facfcf6eb1e3c43c" target="_top" xlink:title="interface disable the interrupt">
<polygon fill="white" stroke="#666666" points="278,-172 136,-172 136,-152 278,-152 278,-172"/>
<text xml:space="preserve" text-anchor="middle" x="207" y="-158.5" font-family="Helvetica,sans-Serif" font-size="10.00">ds2431_interface_disable_irq</text>
</a>
</g>
</g>
<!-- Node1&#45;&gt;Node7 -->
<g id="edge6_Node000001_Node000007" class="edge">
<title>Node1&#45;&gt;Node7</title>
<g id="a_edge6_Node000001_Node000007"><a xlink:title=" ">
<path fill="none" stroke="#63b8ff" d="M100.47,-174.94C108.06,-174.01 116.06,-173.03 124.12,-172.04"/>
<polygon fill="#63b8ff" stroke="#63b8ff" points="124.53,-175.51 134.03,-170.82 123.68,-168.56 124.53,-175.51"/>
</a>
</g>
</g>
<!-- Node8 -->
<g id="Node000008" class="node">
<title>Node8</title>
<g id="a_Node000008"><a xlink:href="group__ds2431__interface__driver.html#ga680f8eb4d98b5f58cefe308ab6bb5cd4" target="_top" xlink:title="interface enable the interrupt">
<polygon fill="white" stroke="#666666" points="276.88,-134 137.12,-134 137.12,-114 276.88,-114 276.88,-134"/>
<text xml:space="preserve" text-anchor="middle" x="207" y="-120.5" font-family="Helvetica,sans-Serif" font-size="10.00">ds2431_interface_enable_irq</text>
</a>
</g>
</g>
<!-- Node1&#45;&gt;Node8 -->
<g id="edge7_Node000001_Node000008" class="edge">
<title>Node1&#45;&gt;Node8</title>
<g id="a_edge7_Node000001_Node000008"><a xlink:title=" ">
<path fill="none" stroke="#63b8ff" d="M71.93,-170.54C88.92,-162.33 113.62,-150.99 136,-143 141.35,-141.09 146.98,-139.27 152.64,-137.55"/>
<polygon fill="#63b8ff" stroke="#63b8ff" points="153.39,-140.98 162.02,-134.83 151.44,-134.26 153.39,-140.98"/>
</a>
</g>
</g>
<!-- Node9 -->
<g id="Node000009" class="node">
<title>Node9</title>
<g id="a_Node000009"><a xlink:href="group__ds2431__interface__driver.html#ga1e981a5ee8dcdddd87a72e0076321864" target="_top" xlink:title="interface bus init">
<polygon fill="white" stroke="#666666" points="261.12,-96 152.88,-96 152.88,-76 261.12,-76 261.12,-96"/>
<text xml:space="preserve" text-anchor="middle" x="207" y="-82.5" font-family="Helvetica,sans-Serif" font-size="10.00">ds2431_interface_init</text>
</a>
</g>
</g>
<!-- Node1&#45;&gt;Node9 -->
<g id="edge8_Node000001_Node000009" class="edge">
<title>Node1&#45;&gt;Node9</title>
<g id="a_edge8_Node000001_Node000009"><a xlink:title=" ">
<path fill="none" stroke="#63b8ff" d="M59.56,-170.74C73.76,-154.38 103.81,-122.47 136,-105 139.06,-103.34 142.27,-101.82 145.56,-100.42"/>
<polygon fill="#63b8ff" stroke="#63b8ff" points="146.76,-103.71 154.88,-96.92 144.29,-97.16 146.76,-103.71"/>
</a>
</g>
</g>
<!-- Node10 -->
<g id="Node000010" class="node">
<title>Node10</title>
<g id="a_Node000010"><a xlink:href="group__ds2431__interface__driver.html#ga20c7ee35bb6133c218f61237a9f87e66" target="_top" xlink:title="interface bus read">
<polygon fill="white" stroke="#666666" points="264.12,-58 149.88,-58 149.88,-38 264.12,-38 264.12,-58"/>
<text xml:space="preserve" text-anchor="middle" x="207" y="-44.5" font-family="Helvetica,sans-Serif" font-size="10.00">ds2431_interface_read</text>
</a>
</g>
</g>
<!-- Node1&#45;&gt;Node10 -->
<g id="edge9_Node000001_Node000010" class="edge">
<title>Node1&#45;&gt;Node10</title>
<g id="a_edge9_Node000001_Node000010"><a xlink:title=" ">
<path fill="none" stroke="#63b8ff" d="M55.72,-170.67C66.55,-148.2 95.39,-94.64 136,-67 138.07,-65.59 140.25,-64.28 142.49,-63.07"/>
<polygon fill="#63b8ff" stroke="#63b8ff" points="143.72,-66.36 151.34,-59 140.8,-60 143.72,-66.36"/>
</a>
</g>
</g>
<!-- Node11 -->
<g id="Node000011" class="node">
<title>Node11</title>
<g id="a_Node000011"><a xlink:href="group__ds2431__interface__driver.html#gadeb3db8e55efba81badfc7281df8b963" target="_top" xlink:title="interface bus write">
<polygon fill="white" stroke="#666666" points="265.25,-20 148.75,-20 148.75,0 265.25,0 265.25,-20"/>
<text xml:space="preserve" text-anchor="middle" x="207" y="-6.5" font-family="Helvetica,sans-Serif" font-size="10.00">ds2431_interface_write</text>
</a>
</g>
</g>
<!-- Node1&#45;&gt;Node11 -->
<g id="edge10_Node000001_Node000011" class="edge">
<title>Node1&#45;&gt;Node11</title>
<g id="a_edge10_Node000001_Node000011"><a xlink:title=" ">
<path fill="none" stroke="#63b8ff" d="M53.73,-170.66C61.54,-143.13 86.67,-67.52 136,-29 137.5,-27.83 139.07,-26.73 140.69,-25.7"/>
<polygon fill="#63b8ff" stroke="#63b8ff" points="141.95,-28.99 149.14,-21.2 138.67,-22.81 141.95,-28.99"/>
</a>
</g>
</g>
</g>
</svg>
