<?xml version="1.0" encoding="UTF-8" standalone="no"?>
<!DOCTYPE svg PUBLIC "-//W3C//DTD SVG 1.1//EN"
 "http://www.w3.org/Graphics/SVG/1.1/DTD/svg11.dtd">
<!-- Generated by graphviz version 13.1.0 (20250701.0955)
 -->
<!-- Title: ds2431_match_read_memory_config Pages: 1 -->
<svg width="300pt" height="78pt"
 viewBox="0.00 0.00 300.00 78.00" xmlns="http://www.w3.org/2000/svg" xmlns:xlink="http://www.w3.org/1999/xlink">
<g id="graph0" class="graph" transform="scale(1 1) rotate(0) translate(4 74)">
<title>ds2431_match_read_memory_config</title>
<!-- Node1 -->
<g id="Node000001" class="node">
<title>Node1</title>
<g id="a_Node000001"><a xlink:title="match example read memory config">
<polygon fill="#999999" stroke="#666666" points="144.25,-48 0,-48 0,-16 144.25,-16 144.25,-48"/>
<text xml:space="preserve" text-anchor="start" x="8" y="-34.5" font-family="Helvetica,sans-Serif" font-size="10.00">ds2431_match_read_memory</text>
<text xml:space="preserve" text-anchor="middle" x="72.12" y="-22.5" font-family="Helvetica,sans-Serif" font-size="10.00">_config</text>
</a>
</g>
</g>
<!-- Node2 -->
<g id="Node000002" class="node">
<title>Node2</title>
<g id="a_Node000002"><a xlink:href="group__ds2431__advance__driver.html#ga70fe326e4c14e120c6f17f26735ca6a8" target="_top" xlink:title="read memory config">
<polygon fill="white" stroke="#666666" points="292.25,-70 180.25,-70 180.25,-38 292.25,-38 292.25,-70"/>
<text xml:space="preserve" text-anchor="start" x="188.25" y="-56.5" font-family="Helvetica,sans-Serif" font-size="10.00">ds2431_read_memory</text>
<text xml:space="preserve" text-anchor="middle" x="236.25" y="-44.5" font-family="Helvetica,sans-Serif" font-size="10.00">_config</text>
</a>
</g>
</g>
<!-- Node1&#45;&gt;Node2 -->
<g id="edge1_Node000001_Node000002" class="edge">
<title>Node1&#45;&gt;Node2</title>
<g id="a_edge1_Node000001_Node000002"><a xlink:title=" ">
<path fill="none" stroke="#63b8ff" d="M144.71,-41.71C152.78,-42.81 160.98,-43.92 168.98,-45.01"/>
<polygon fill="#63b8ff" stroke="#63b8ff" points="168.24,-48.44 178.62,-46.32 169.18,-41.5 168.24,-48.44"/>
</a>
</g>
</g>
<!-- Node3 -->
<g id="Node000003" class="node">
<title>Node3</title>
<g id="a_Node000003"><a xlink:href="group__ds2431__base__driver.html#ga172f4e4287b3c63926a914ae4af09551" target="_top" xlink:title="set the handle rom">
<polygon fill="white" stroke="#666666" points="280.25,-20 192.25,-20 192.25,0 280.25,0 280.25,-20"/>
<text xml:space="preserve" text-anchor="middle" x="236.25" y="-6.5" font-family="Helvetica,sans-Serif" font-size="10.00">ds2431_set_rom</text>
</a>
</g>
</g>
<!-- Node1&#45;&gt;Node3 -->
<g id="edge2_Node000001_Node000003" class="edge">
<title>Node1&#45;&gt;Node3</title>
<g id="a_edge2_Node000001_Node000003"><a xlink:title=" ">
<path fill="none" stroke="#63b8ff" d="M144.71,-22.29C156.8,-20.65 169.17,-18.97 180.73,-17.4"/>
<polygon fill="#63b8ff" stroke="#63b8ff" points="181.04,-20.89 190.48,-16.07 180.1,-13.95 181.04,-20.89"/>
</a>
</g>
</g>
</g>
</svg>
