<?xml version="1.0" encoding="UTF-8" standalone="no"?>
<!DOCTYPE svg PUBLIC "-//W3C//DTD SVG 1.1//EN"
 "http://www.w3.org/Graphics/SVG/1.1/DTD/svg11.dtd">
<!-- Generated by graphviz version 13.1.0 (20250701.0955)
 -->
<!-- Title: ds2431_match_read Pages: 1 -->
<svg width="236pt" height="66pt"
 viewBox="0.00 0.00 236.00 66.00" xmlns="http://www.w3.org/2000/svg" xmlns:xlink="http://www.w3.org/1999/xlink">
<g id="graph0" class="graph" transform="scale(1 1) rotate(0) translate(4 62)">
<title>ds2431_match_read</title>
<!-- Node1 -->
<g id="Node000001" class="node">
<title>Node1</title>
<g id="a_Node000001"><a xlink:title="match example read">
<polygon fill="#999999" stroke="#666666" points="103.75,-39 0,-39 0,-19 103.75,-19 103.75,-39"/>
<text xml:space="preserve" text-anchor="middle" x="51.88" y="-25.5" font-family="Helvetica,sans-Serif" font-size="10.00">ds2431_match_read</text>
</a>
</g>
</g>
<!-- Node2 -->
<g id="Node000002" class="node">
<title>Node2</title>
<g id="a_Node000002"><a xlink:href="group__ds2431__base__driver.html#ga119ae42f0e441a43716bd359ddfdca0d" target="_top" xlink:title="read data">
<polygon fill="white" stroke="#666666" points="219.5,-58 148,-58 148,-38 219.5,-38 219.5,-58"/>
<text xml:space="preserve" text-anchor="middle" x="183.75" y="-44.5" font-family="Helvetica,sans-Serif" font-size="10.00">ds2431_read</text>
</a>
</g>
</g>
<!-- Node1&#45;&gt;Node2 -->
<g id="edge1_Node000001_Node000002" class="edge">
<title>Node1&#45;&gt;Node2</title>
<g id="a_edge1_Node000001_Node000002"><a xlink:title=" ">
<path fill="none" stroke="#63b8ff" d="M104.21,-36.51C114.93,-38.08 126.18,-39.72 136.7,-41.26"/>
<polygon fill="#63b8ff" stroke="#63b8ff" points="135.87,-44.68 146.27,-42.66 136.88,-37.75 135.87,-44.68"/>
</a>
</g>
</g>
<!-- Node3 -->
<g id="Node000003" class="node">
<title>Node3</title>
<g id="a_Node000003"><a xlink:href="group__ds2431__base__driver.html#ga172f4e4287b3c63926a914ae4af09551" target="_top" xlink:title="set the handle rom">
<polygon fill="white" stroke="#666666" points="227.75,-20 139.75,-20 139.75,0 227.75,0 227.75,-20"/>
<text xml:space="preserve" text-anchor="middle" x="183.75" y="-6.5" font-family="Helvetica,sans-Serif" font-size="10.00">ds2431_set_rom</text>
</a>
</g>
</g>
<!-- Node1&#45;&gt;Node3 -->
<g id="edge2_Node000001_Node000003" class="edge">
<title>Node1&#45;&gt;Node3</title>
<g id="a_edge2_Node000001_Node000003"><a xlink:title=" ">
<path fill="none" stroke="#63b8ff" d="M104.21,-21.49C112.02,-20.35 120.11,-19.16 127.99,-18.01"/>
<polygon fill="#63b8ff" stroke="#63b8ff" points="128.45,-21.48 137.84,-16.57 127.44,-14.56 128.45,-21.48"/>
</a>
</g>
</g>
</g>
</svg>
