<?xml version="1.0" encoding="UTF-8" standalone="no"?>
<!DOCTYPE svg PUBLIC "-//W3C//DTD SVG 1.1//EN"
 "http://www.w3.org/Graphics/SVG/1.1/DTD/svg11.dtd">
<!-- Generated by graphviz version 13.1.0 (20250701.0955)
 -->
<!-- Title: ds2431_match_write Pages: 1 -->
<svg width="238pt" height="66pt"
 viewBox="0.00 0.00 238.00 66.00" xmlns="http://www.w3.org/2000/svg" xmlns:xlink="http://www.w3.org/1999/xlink">
<g id="graph0" class="graph" transform="scale(1 1) rotate(0) translate(4 62)">
<title>ds2431_match_write</title>
<!-- Node1 -->
<g id="Node000001" class="node">
<title>Node1</title>
<g id="a_Node000001"><a xlink:title="match example write">
<polygon fill="#999999" stroke="#666666" points="106,-39 0,-39 0,-19 106,-19 106,-39"/>
<text xml:space="preserve" text-anchor="middle" x="53" y="-25.5" font-family="Helvetica,sans-Serif" font-size="10.00">ds2431_match_write</text>
</a>
</g>
</g>
<!-- Node2 -->
<g id="Node000002" class="node">
<title>Node2</title>
<g id="a_Node000002"><a xlink:href="group__ds2431__base__driver.html#ga172f4e4287b3c63926a914ae4af09551" target="_top" xlink:title="set the handle rom">
<polygon fill="white" stroke="#666666" points="230,-58 142,-58 142,-38 230,-38 230,-58"/>
<text xml:space="preserve" text-anchor="middle" x="186" y="-44.5" font-family="Helvetica,sans-Serif" font-size="10.00">ds2431_set_rom</text>
</a>
</g>
</g>
<!-- Node1&#45;&gt;Node2 -->
<g id="edge1_Node000001_Node000002" class="edge">
<title>Node1&#45;&gt;Node2</title>
<g id="a_edge1_Node000001_Node000002"><a xlink:title=" ">
<path fill="none" stroke="#63b8ff" d="M106.15,-36.56C114.2,-37.73 122.53,-38.94 130.63,-40.11"/>
<polygon fill="#63b8ff" stroke="#63b8ff" points="129.97,-43.56 140.37,-41.53 130.98,-36.63 129.97,-43.56"/>
</a>
</g>
</g>
<!-- Node3 -->
<g id="Node000003" class="node">
<title>Node3</title>
<g id="a_Node000003"><a xlink:href="group__ds2431__base__driver.html#ga1e133f05dbe5fc3ab2b4851d52e58234" target="_top" xlink:title="write data">
<polygon fill="white" stroke="#666666" points="222.88,-20 149.12,-20 149.12,0 222.88,0 222.88,-20"/>
<text xml:space="preserve" text-anchor="middle" x="186" y="-6.5" font-family="Helvetica,sans-Serif" font-size="10.00">ds2431_write</text>
</a>
</g>
</g>
<!-- Node1&#45;&gt;Node3 -->
<g id="edge2_Node000001_Node000003" class="edge">
<title>Node1&#45;&gt;Node3</title>
<g id="a_edge2_Node000001_Node000003"><a xlink:title=" ">
<path fill="none" stroke="#63b8ff" d="M106.15,-21.44C116.52,-19.93 127.35,-18.36 137.55,-16.88"/>
<polygon fill="#63b8ff" stroke="#63b8ff" points="137.85,-20.38 147.25,-15.48 136.85,-13.45 137.85,-20.38"/>
</a>
</g>
</g>
</g>
</svg>
